<svg id="레이어_1" data-name="레이어 1" xmlns="http://www.w3.org/2000/svg" viewBox="0 0 300 150"><defs><style>.cls-1{fill:#ff9700;}.cls-2{fill:#fff;}</style></defs><title>ic_title</title><path class="cls-1" d="M145.95,68.83c0,1.3,0,2.48,0,3.66,0,5.62-2.72,9.78-8.13,11.13-5.06,1.27-10.29,1.86-15.44,2.78-5.43,1-10.86,1.9-16.26,3-6,1.19-10.28-.61-13.38-5.78-.5-.83-1.06-1.64-2-3a26.23,26.23,0,0,0-.88,3.49A16.32,16.32,0,0,1,75.06,98.4a8.64,8.64,0,0,1-7.68-4.46c-.37-.75-.76-1.48-1.14-2.22a.3.3,0,0,0-.56.08c-.09.51-.22,1-.26,1.54-.47,6.5-4,11.08-9.41,14.2-1.83,1.06-4.33,1-6.53,1.39-.69.13-1.57,0-2.06.39a15.15,15.15,0,0,1-12.29,3.36c-.5-.08-1.29.69-1.73,1.24-1.72,2.18-3.1,4.7-5.1,6.57a24.32,24.32,0,0,1-6.75,4.4c-5.06,2.24-9.63-1.43-10.64-6.59-1.39-7.16,1.54-13.61,3.26-20.26.41-1.59.86-3.08-.36-4.57-1.4.38-2.78.79-4.18,1.15-4.54,1.17-8.39-2.63-9.2-7-1.19-6.36,1.4-11.54,5.32-16.29C10.4,65.78,17.06,63,22.91,59.16c3.37-2.22,6.73-4.56,10.79-5.52a3.67,3.67,0,0,0,1.8-1.47A19.71,19.71,0,0,1,47.59,44a23.4,23.4,0,0,1,2.92-.13,5.94,5.94,0,0,0,2.64-.42c6.78-4.53,14.39-7.1,22-9.64a33.12,33.12,0,0,1,13.3-1.94,1.27,1.27,0,0,0,1-.38c3-5.16,8.22-6.85,13.51-7.87,8.93-1.72,17.92-3.31,27-4.28A13.11,13.11,0,0,1,142,24c1,1.18,1.65,1.41,2.89.34,3.51-3,7.83-3.32,12.18-3.23,3.46.06,6.92.25,10.37.46a49.59,49.59,0,0,1,16.84,3.66,4.47,4.47,0,0,1,1.67,1.06c1.67,2,3.44,1.77,5.63.8,5.3-2.34,10.74-1.69,16.25-.57,7.94,1.61,15.86,3.6,22.88,7.52,5.51,3.08,11.7,3.5,17.22,6.13,8.23,3.92,16.68,7.43,23.42,13.87a3.06,3.06,0,0,0,1.35.75c4.15,1.07,7,4,10,6.74a11.54,11.54,0,0,0,3.63,1.94c7.67,3.06,12,8.93,13.48,16.78.71,3.84-.35,7.78-1.62,11.55-1.9,5.67-3.62,11.41-5.48,17.09a7.9,7.9,0,0,1-1.41,2.52,11.19,11.19,0,0,0-2.25,6.71c-.3,4.29-4.64,9.48-9.72,7.62a32.32,32.32,0,0,1-7.44-4.1c-1.62-1.14-2.95-2.27-5.1-2.63-6.1-1-9.81-5.24-12.43-10.52-1.07-2.16-1.92-2.68-4.21-2.14a12.36,12.36,0,0,1-10.07-2.07c-3-2.15-5.51-4.55-6.8-8.09-.13-.35-1.37-.74-1.57-.56-3,2.79-6.51,2.54-10,1.61-4.28-1.15-8.74-2-12.4-4.75a19.57,19.57,0,0,1-3.6-3.38,4.11,4.11,0,0,0-3.78-1.66c-7.65.36-13.16-3.24-17.17-9.47a22.13,22.13,0,0,1-2.23-4.23c-.55-1.48-1.6-1.57-2.84-1.61-1.39,0-1.21,1.07-1.53,1.91-.88,2.34-1.48,4.9-2.87,6.9-2.56,3.69-6.71,4.7-10.83,4.08-5-.76-8.89-3.5-10.08-8.92-.07-.32-.17-.64-.24-1C152.93,69.22,152.58,68.95,145.95,68.83Zm-56-7.06c-.09-.46-.17-.77-.21-1.09-.64-5-1.14-10-1.94-15-.68-4.21-2.77-5.5-6.83-4.08C73.44,44.21,66,47,58.55,49.91a7.86,7.86,0,0,0-2.92,2.33,3.71,3.71,0,0,0-.34,4.47c.9,1.6,2.34,1.55,3.84,1.21A13.75,13.75,0,0,0,61,57.28q8.38-3.22,16.75-6.46c1.42-.55,2.11-.2,2.28,1.49.34,3.42.76,6.84,1.44,10.22.28,1.41.09,2-1.25,2.5C73.08,67.71,66,70.51,58.87,73.34A7.41,7.41,0,0,0,56.43,75a3.34,3.34,0,0,0-.71,4.21,3.05,3.05,0,0,0,4,1.32c2.32-.82,4.59-1.78,6.88-2.69,1.76-.71,3.51-1.44,5.42-2.23.15.87.22,1.38.32,1.9.61,3.13,1.05,6.3,1.88,9.38.56,2.08,2.16,2.54,4.11,1.61,2.42-1.15,3.48-3.1,3.13-6.08-.31-2.64-.73-5.27-1.19-7.89a1.75,1.75,0,0,1,1.41-2.35c3.5-1.08,7-2.2,10.41-3.5a12,12,0,0,0,3.64-2.34,3,3,0,0,0,.37-3.87,2.84,2.84,0,0,0-3.59-1.38C91.7,61.35,90.86,61.53,89.94,61.77Zm80.25-.14c3.06.4,5.42.77,7.8,1a34.19,34.19,0,0,0,6.56.37c1.1-.1,2.77-1.12,3-2,.27-1.18-.44-2.74-1.1-3.93-.32-.59-1.44-.85-2.25-1-2.48-.54-2.51-.62-2.28-3.16.4-4.51.81-9,1-13.53S181,32.44,176.33,32c-7.34-.64-14.69-1.22-22-1.8-2.59-.2-4.48,1.28-4.71,3.56s1.4,4.26,4.05,4.5c2.38.21,4.78.27,7.17.44,3.71.26,7.42.56,11.13.83,1.5.11,2.35.83,2.27,2.4-.2,3.72-.38,7.45-.7,11.16a1.82,1.82,0,0,1-1.29,1.21c-5.9-.37-11.79-.88-17.68-1.31a46.76,46.76,0,0,0-5.19-.15,3.32,3.32,0,0,0-3.33,2.4,3.48,3.48,0,0,0,1.56,4,5.86,5.86,0,0,0,2.76,1c3.18.26,6.38.41,9.57.49,1.74,0,2.46.53,2.25,2.51a61.69,61.69,0,0,0-.16,8.58c.1,2.76,1.21,3.9,3.44,4.08,2.44.19,3.86-.89,4.36-3.64a33.63,33.63,0,0,0,.36-5C170.23,65.54,170.18,63.77,170.18,61.63Zm-149.72,18c1.06,3.89,2.15,7.37,2.91,10.93a10.27,10.27,0,0,1-.17,4.62C22,99.65,20.51,104,19.35,108.45a11.62,11.62,0,0,0-.09,5,2.19,2.19,0,0,0,3.62,1.49A9.33,9.33,0,0,0,26,111.5a76.5,76.5,0,0,0,2.95-7.83c.54-1.54,1-3.13,1.52-4.89L33,100.06c1.66.84,3.28,1.81,5,2.51a5.52,5.52,0,0,0,6.81-1.67c1.32-2,1.08-4.36-1.41-6.36a66.54,66.54,0,0,0-9.14-6,4.19,4.19,0,0,1-2.52-3.45,29.92,29.92,0,0,0-1.72-7c-1-2.5-1.11-4,1.13-5a30.69,30.69,0,0,0,4.91-3.07,5.9,5.9,0,0,0,2.2-2.48,4.42,4.42,0,0,0-.17-3.47,4,4,0,0,0-3.22-1.32,11.65,11.65,0,0,0-4.39,1.72c-5.9,3.5-11.81,7-17.55,10.75-1.5,1-2.55,2.81-3.51,4.43a3.09,3.09,0,0,0,.62,4c1.3,1.13,2.74.6,4.07-.22C16.08,82.28,18.08,81.09,20.46,79.66Zm199.12-12c2,.09,2.8.77,2.43,2.65a63.86,63.86,0,0,0-1.09,7.52,45.3,45.3,0,0,0-.07,8.27,2.77,2.77,0,0,0,3.27,2.3c1.6-.19,2.17-1.37,2.48-2.74.13-.58.27-1.17.37-1.76,1.57-9.45,3.2-18.9,4.66-28.37a46.42,46.42,0,0,0,.61-9.27,3.53,3.53,0,0,0-3.59-3.38c-2.05.18-2.71,1.66-3,3.43-.05.33-.11.66-.16,1-.59,3.88-1.23,7.76-1.76,11.65-.24,1.79-1.25,1.7-2.35,1a2,2,0,0,1-.55-1.62c.47-3.83,1.11-7.64,1.55-11.47a13.17,13.17,0,0,0-.19-4.15c-.44-2.1-1.92-3.32-3.51-3.25s-2.84,1.59-3.12,3.65q-2,15.24-4,30.49a72.25,72.25,0,0,0-.75,7.34c-.06,2.32,1.75,4.4,3.51,4.47s2.73-1.31,3.14-4C218.14,76.91,218.86,72.32,219.58,67.65ZM127.74,34.81l.15.6a4.13,4.13,0,0,1-1.12.57c-7.73,1.25-15.46,2.5-23.2,3.68-4.62.7-6,2.29-5.6,6.92.06.73.19,1.45.29,2.18.39,2.76,1.64,3.65,4.35,3.2,9.85-1.63,19.71-3.22,29.55-4.86a7.07,7.07,0,0,0,2.43-.81,2.47,2.47,0,0,0-.24-4.56,5.12,5.12,0,0,0-2.71-.36c-8.08,1.21-16.16,2.5-24.23,3.75a9.44,9.44,0,0,1-1.43,0l-.13-.55a11.25,11.25,0,0,1,1.88-.64c7.81-1.22,15.62-2.45,23.44-3.6,3.18-.47,4.6-2,4.57-5.16,0-.93,0-1.87-.09-2.8a4,4,0,0,0-3.82-3.91,12.32,12.32,0,0,0-3.19,0c-8.27,1.31-16.54,2.62-24.79,4.05a25,25,0,0,0-5.29,1.7,2.59,2.59,0,0,0-1.39,3.52c.46,1.4,1.58,1.65,2.91,1.39.85-.17,1.71-.27,2.56-.41q11.52-2,23-3.93A12.48,12.48,0,0,1,127.74,34.81ZM107.6,74l-.25-.86a13.09,13.09,0,0,1,2.24-.79c7-1.13,14.07-2.3,21.13-3.3,6.75-1,6.37-1.9,6.26-7.24a5,5,0,0,0-5.55-4.9c-3.58.38-7.17.76-10.71,1.4Q111.31,60,102,62.11c-2.37.53-3.41,2.18-2.95,3.8s1.59,2.12,4.26,1.64q12.26-2.21,24.54-4.33a8.74,8.74,0,0,1,1.92.09l0,.68c-1.8.28-3.6.53-5.38.85-6.73,1.19-13.47,2.31-20.17,3.64a5.47,5.47,0,0,0-4.33,6.23c.15.92.29,1.84.49,2.75.6,2.73,1.82,3.47,4.61,3,7.4-1.29,14.81-2.55,22.21-3.82,2.75-.47,5.51-.88,8.24-1.46a2.37,2.37,0,0,0,2-2.93A2.51,2.51,0,0,0,134.6,70a13.45,13.45,0,0,0-1.6,0c-6.38.88-12.76,1.75-19.14,2.69C111.76,73.05,109.69,73.59,107.6,74ZM255.54,61.08c2.38,1.17,4.55,2.32,6.79,3.3,1.15.5,2.54.91,3.44-.43a3,3,0,0,0-.18-4,14.74,14.74,0,0,0-3.36-2.76q-6.4-3.48-13-6.69c-2.63-1.28-5.36-2.36-8.09-3.43a2.53,2.53,0,0,0-3.68,2.39,4.5,4.5,0,0,0,2.82,4.43,31.62,31.62,0,0,0,4.42,1.83c1.84.56,2.32,1.68,1.56,3.28a4,4,0,0,1-1.71,1.69c-2.68,1.34-5.48,2.43-8.12,3.84-2.84,1.52-2.92,4.44,0,5.79a10.47,10.47,0,0,0,5.56.48,14.68,14.68,0,0,0,4.77-2c1.63-.9,2.54-.71,3.37,1.08a48.14,48.14,0,0,0,3.89,7,13.72,13.72,0,0,0,3.82,3.71,3.86,3.86,0,0,0,3.28.09c.51-.26.6-1.92.43-2.87a17.93,17.93,0,0,0-2-4.74c-1.26-2.47-2.54-4.92-4-7.28A4.46,4.46,0,0,1,255.54,61.08Zm7.7,33.25c-2.63-1.25-4.9-2.51-7.32-3.38-.93-.34-2.66-.18-3.18.45a4.5,4.5,0,0,0-.5,3.49,5,5,0,0,0,2.07,2.53,57.3,57.3,0,0,0,5.73,3.23,1.85,1.85,0,0,1,1.19,2.19,5.77,5.77,0,0,0,1.59,5.15c2.13,2.12,4.23,1.82,5.57-.83a10.73,10.73,0,0,0,.72-2.07c2.44-9.06,4.93-18.1,7.26-27.19a42,42,0,0,0,1.34-8.63c.1-2.47-2.6-4.95-5-4.91-2.53,0-2.66,2.28-3.12,4-1.06,4-2,8-2.94,12C265.59,85,264.43,89.54,263.24,94.33Zm-53-32.81a31.47,31.47,0,0,0-.54-5.35c-.86-5.23-4.54-8.62-9.54-8.91-4.82-.27-8.32,2.34-9.75,7.65a68.05,68.05,0,0,0-1,7.28,17.71,17.71,0,0,0,1.68,10.47,9.9,9.9,0,0,0,7.54,5.61c4.27.82,7.66-.85,9.08-4.93A71,71,0,0,0,210.22,61.52Zm-153,32c-.24-1.37-.44-2.76-.72-4.12C54.41,78.8,52.29,68.17,50.1,57.55c-.36-1.77-.95-3.58-3.16-3.88A5.24,5.24,0,0,0,42,57a6.36,6.36,0,0,0-.18,3.11c1.91,9.18,3.91,18.35,5.89,27.51.66,3.05,1.17,6.15,2,9.15.81,2.83,3,3.55,5.18,1.59A11.65,11.65,0,0,0,57.26,93.55Zm192.51-7.2c1.3.65,2.17,1.12,3.08,1.52a62.84,62.84,0,0,0,6,2.57,2.62,2.62,0,0,0,3.4-3.59,6.1,6.1,0,0,0-2.56-3.11q-12-6-24.26-11.64a3.58,3.58,0,0,0-3.23.36,3.76,3.76,0,0,0-.59,3.22,5.42,5.42,0,0,0,2.25,2.83,51.6,51.6,0,0,0,6.64,3.19c1.29.54,1.84,1.08,1.48,2.64a57,57,0,0,0-1.25,8.07,4.59,4.59,0,0,0,3.77,4.71c1.89.24,2.94-.86,3.59-3.7C248.65,91.16,249.17,88.91,249.77,86.34Zm41.43-7a6.81,6.81,0,0,0-3.45-5.82c-2.76-1.77-4.68-1.17-5.68,1.93-.73,2.28-1.26,4.62-1.9,6.92-1.34,4.87-2.7,9.74-4,14.61-.59,2.15-.66,4.23,1.1,5.95,1.39,1.37,2.88,2.89,5,2.51s2.14-2.67,2.66-4.31c1.75-5.58,3.44-11.17,5.11-16.77C290.44,82.66,290.78,81,291.19,79.3Zm-192-18.22c.92-.16,1.85-.24,2.74-.48,10.12-2.69,20.48-3.91,30.83-5.17a28.32,28.32,0,0,0,4.7-.75,2.76,2.76,0,0,0,1.89-3.51,2.91,2.91,0,0,0-3.15-2.48,41.07,41.07,0,0,0-4.77.18C121.3,50,111.2,51.27,101.35,54a16,16,0,0,0-4.17,1.78,2.48,2.48,0,0,0-1,3.48A3.26,3.26,0,0,0,99.18,61.07ZM198,38.27a21.6,21.6,0,0,0-4.36-.85,4.51,4.51,0,0,0-3.09,1.19,3.11,3.11,0,0,0,0,2.89,5.88,5.88,0,0,0,2.78,2.31,58.9,58.9,0,0,0,6.52,1.83q4.35,1.11,8.71,2.16c2.16.52,3.56-.06,4.17-1.67a3.52,3.52,0,0,0-1.77-4.39,10,10,0,0,0-2-.85,20.27,20.27,0,0,1-2.68-.75,2.15,2.15,0,0,1-1.13-1.42c-.15-2.64-1.14-4-3.27-4.22S198.76,35.26,198,38.27Zm83.41,74.07c-.31-2.61-3.58-6-5.93-5.8a2.77,2.77,0,0,0-1.84,1.45c-1.25,2.74-.49,4.88,2.44,6.71,1,.6,2.55,1.21,3.33.8C280.38,115,280.78,113.44,281.42,112.34Z"/><path class="cls-2" d="M89.94,61.77c.93-.24,1.76-.41,2.57-.66a2.84,2.84,0,0,1,3.59,1.38,3,3,0,0,1-.37,3.87,12,12,0,0,1-3.64,2.34c-3.42,1.3-6.91,2.41-10.41,3.5a1.75,1.75,0,0,0-1.41,2.35c.46,2.62.88,5.25,1.19,7.89.35,3-.71,4.93-3.13,6.08-2,.93-3.55.47-4.11-1.61-.83-3.07-1.28-6.24-1.88-9.38-.1-.51-.17-1-.32-1.9-1.91.79-3.66,1.52-5.42,2.23-2.29.92-4.56,1.87-6.88,2.69a3.05,3.05,0,0,1-4-1.32A3.34,3.34,0,0,1,56.43,75a7.41,7.41,0,0,1,2.44-1.68C66,70.51,73.08,67.71,80.23,65c1.23-.46,1.49-1,1.3-2.18C81,59.3,80.46,55.74,80,52.18c-.19-1.57-.88-1.89-2.26-1.36Q69.4,54.07,61,57.28a13.75,13.75,0,0,1-1.88.65c-1.5.34-2.94.39-3.84-1.21a3.71,3.71,0,0,1,.34-4.47,7.86,7.86,0,0,1,2.92-2.33C66,47,73.44,44.21,81,41.58c4.06-1.42,6.15-.13,6.83,4.08.8,5,1.3,10,1.94,15C89.77,61,89.85,61.31,89.94,61.77Z"/><path class="cls-2" d="M170.18,61.63c0,2.14,0,3.91,0,5.68a33.63,33.63,0,0,1-.36,5c-.5,2.75-1.92,3.84-4.36,3.64-2.23-.18-3.34-1.33-3.44-4.08a61.69,61.69,0,0,1,.16-8.58c.2-2-.52-2.46-2.25-2.51-3.19-.09-6.39-.23-9.57-.49a5.86,5.86,0,0,1-2.76-1,3.48,3.48,0,0,1-1.56-4,3.32,3.32,0,0,1,3.33-2.4,46.76,46.76,0,0,1,5.19.15c5.89.43,11.78.94,17.68,1.31a1.82,1.82,0,0,0,1.29-1.21c.32-3.71.5-7.44.7-11.16.08-1.57-.77-2.29-2.27-2.4-3.71-.27-7.42-.57-11.13-.83-2.39-.17-4.79-.22-7.17-.44-2.65-.24-4.29-2.12-4.05-4.5s2.12-3.76,4.71-3.56c7.35.58,14.7,1.16,22,1.8,4.64.4,6.75,2.68,6.55,7.32s-.6,9-1,13.53c-.22,2.54-.2,2.62,2.28,3.16.81.18,1.93.44,2.25,1,.66,1.19,1.37,2.75,1.1,3.93-.2.88-1.88,1.91-3,2a34.19,34.19,0,0,1-6.56-.37C175.61,62.4,173.24,62,170.18,61.63Z"/><path class="cls-2" d="M20.46,79.66c-2.38,1.44-4.38,2.62-6.36,3.84-1.33.82-2.77,1.35-4.07.22a3.09,3.09,0,0,1-.62-4c1-1.62,2-3.44,3.51-4.43C18.67,71.5,24.58,68,30.48,64.51a11.65,11.65,0,0,1,4.39-1.72,4,4,0,0,1,3.22,1.32,4.42,4.42,0,0,1,.17,3.47,5.9,5.9,0,0,1-2.2,2.48,30.69,30.69,0,0,1-4.91,3.07C29.3,74,29.08,75.18,29.63,77c.86,2.87,1.55,5.79,2.24,8.71a4.21,4.21,0,0,0,2.42,2.86,66.54,66.54,0,0,1,9.14,6c2.49,2,2.73,4.35,1.41,6.36A5.52,5.52,0,0,1,38,102.57c-1.72-.71-3.33-1.67-5-2.51l-2.56-1.28c-.54,1.76-1,3.34-1.52,4.89A76.5,76.5,0,0,1,26,111.5a9.27,9.27,0,0,1-3,3.35c-1.78,1.24-3.33.62-3.72-1.51a11.59,11.59,0,0,1,.11-4.89C20.51,104,22,99.65,23.2,95.21a10.27,10.27,0,0,0,.17-4.62C22.61,87,21.52,83.55,20.46,79.66Z"/><path class="cls-2" d="M219.58,67.65c-.73,4.67-1.45,9.26-2.15,13.84-.41,2.65-1.5,4-3.14,4s-3.57-2.16-3.51-4.47a72.25,72.25,0,0,1,.75-7.34q2-15.25,4-30.49c.28-2.06,1.63-3.58,3.12-3.65s3.06,1.15,3.51,3.25a13.17,13.17,0,0,1,.19,4.15c-.44,3.83-1.07,7.64-1.55,11.47a2,2,0,0,0,.55,1.62c1.1.67,2.11.75,2.35-1,.53-3.89,1.16-7.77,1.76-11.65.05-.33.11-.66.16-1,.28-1.77.94-3.26,3-3.43a3.53,3.53,0,0,1,3.59,3.38,46.42,46.42,0,0,1-.61,9.27C230.17,65,228.54,74.44,227,83.89c-.1.59-.23,1.17-.37,1.76-.32,1.37-.88,2.55-2.48,2.74a2.77,2.77,0,0,1-3.27-2.3,45.31,45.31,0,0,1,.07-8.27,62.54,62.54,0,0,1,1.09-7.5C222.39,68.43,221.61,67.74,219.58,67.65Z"/><path class="cls-2" d="M127.74,34.81a12.48,12.48,0,0,0-2,0q-11.52,1.94-23,3.93c-.85.15-1.71.24-2.56.41-1.33.26-2.45,0-2.91-1.39a2.59,2.59,0,0,1,1.39-3.52,25,25,0,0,1,5.29-1.7c8.25-1.43,16.52-2.74,24.79-4.05a12.32,12.32,0,0,1,3.19,0,4,4,0,0,1,3.82,3.91c.09.93.08,1.86.09,2.8,0,3.19-1.38,4.69-4.57,5.16-7.82,1.15-15.63,2.38-23.44,3.6a11.25,11.25,0,0,0-1.88.64l.13.55a9.44,9.44,0,0,0,1.43,0c8.08-1.25,16.15-2.54,24.23-3.75a5.12,5.12,0,0,1,2.71.36,2.47,2.47,0,0,1,.24,4.56,7.07,7.07,0,0,1-2.43.81c-9.85,1.64-19.71,3.23-29.55,4.86-2.7.45-4-.43-4.35-3.2-.1-.73-.23-1.45-.29-2.18-.37-4.62,1-6.21,5.6-6.92,7.74-1.18,15.47-2.43,23.2-3.68a4.13,4.13,0,0,0,1.12-.57Z"/><path class="cls-2" d="M107.6,74c2.09-.44,4.16-1,6.26-1.29,6.37-.95,12.75-1.81,19.14-2.69a13.45,13.45,0,0,1,1.6,0,2.51,2.51,0,0,1,2.85,2.21,2.37,2.37,0,0,1-2,2.93c-2.72.59-5.49,1-8.24,1.46-7.4,1.27-14.81,2.53-22.21,3.82-2.79.49-4-.26-4.61-3-.2-.91-.34-1.83-.49-2.75-.59-3.73.4-5.45,4.1-6.19,6.78-1.35,13.59-2.48,20.4-3.68,1.79-.32,3.59-.57,5.38-.85l0-.68a8.74,8.74,0,0,0-1.92-.09q-12.28,2.13-24.54,4.33c-2.67.48-3.76.11-4.26-1.64s.57-3.28,2.95-3.8q9.35-2.07,18.77-3.77c3.54-.64,7.13-1,10.71-1.4,3.92-.42,5.47,1.11,5.56,5,.11,5.2.41,6.14-6.27,7.09-7.06,1-14.09,2.16-21.13,3.3a13.09,13.09,0,0,0-2.24.79Z"/><path class="cls-2" d="M255.54,61.08a4.47,4.47,0,0,0,0,4.6c1.66,2.81,3.18,5.7,4.69,8.59a12.67,12.67,0,0,1,1.37,3.52c.17.95.09,2.61-.43,2.87a3.86,3.86,0,0,1-3.28-.09,13.72,13.72,0,0,1-3.82-3.71,48.14,48.14,0,0,1-3.89-7c-.83-1.79-1.73-2-3.37-1.08a14.68,14.68,0,0,1-4.77,2,10.47,10.47,0,0,1-5.56-.48c-2.92-1.35-2.84-4.28,0-5.79,2.64-1.41,5.44-2.5,8.12-3.84A4,4,0,0,0,246.31,59c.77-1.6.29-2.72-1.56-3.28a31.62,31.62,0,0,1-4.42-1.83,4.5,4.5,0,0,1-2.82-4.43c.05-2.39,1.26-3.33,3.5-2.46,2.79,1.09,5.58,2.19,8.27,3.5q6.55,3.19,13,6.69a14.74,14.74,0,0,1,3.36,2.76,3,3,0,0,1,.18,4c-.9,1.34-2.29.93-3.44.43C260.08,63.4,257.92,62.25,255.54,61.08Z"/><path class="cls-2" d="M263.24,94.33c1.2-4.79,2.35-9.36,3.47-13.93,1-4,1.88-8,2.94-12,.46-1.71.58-4,3.12-4,2.36,0,5.06,2.44,5,4.91a42,42,0,0,1-1.34,8.63C274.06,87,271.56,96,269.12,105.1a10.73,10.73,0,0,1-.72,2.07c-1.34,2.65-3.44,2.94-5.57.83a5.77,5.77,0,0,1-1.59-5.15,1.85,1.85,0,0,0-1.19-2.19,57.3,57.3,0,0,1-5.73-3.23,5,5,0,0,1-2.07-2.53,4.5,4.5,0,0,1,.5-3.49c.51-.63,2.24-.79,3.18-.45C258.33,91.82,260.61,93.08,263.24,94.33Z"/><path class="cls-2" d="M207.68,73.34c-1.42,4.09-4.81,5.75-9.08,4.93a9.9,9.9,0,0,1-7.54-5.61,17.71,17.71,0,0,1-1.68-10.47,68.05,68.05,0,0,1,1-7.28c1.42-5.31,4.93-7.92,9.75-7.65,5,.28,8.68,3.68,9.54,8.91.28,1.69.36,3.41.52,5.12,0,.2,0,.4,0,.6C210.21,64.18,208.9,69.83,207.68,73.34Zm-11.76-9.71a26.05,26.05,0,0,0,.9,5.37,3.93,3.93,0,0,0,2.64,2.15,3.45,3.45,0,0,0,2.77-1.61,16.25,16.25,0,0,0,1-12c-.5-1.77-2-2-3.48-2A2.46,2.46,0,0,0,197,57.62C196.6,59.62,196.28,61.65,195.92,63.63Z"/><path class="cls-2" d="M54.88,98.38c-2.18,2-4.37,1.24-5.18-1.59-.86-3-1.37-6.09-2-9.15-2-9.17-4-18.33-5.89-27.51A6.36,6.36,0,0,1,42,57a5.24,5.24,0,0,1,5-3.35c2.22.3,2.8,2.11,3.16,3.88,2.19,10.62,4.31,21.24,6.44,31.87.27,1.37.48,2.75.72,4.12C57.69,95.22,56.15,97.24,54.88,98.38Z"/><path class="cls-2" d="M249.77,86.34c-.59,2.56-1.12,4.82-1.63,7.07-.65,2.84-1.71,3.93-3.59,3.7a4.59,4.59,0,0,1-3.77-4.71A57,57,0,0,1,242,84.33c.36-1.56-.19-2.1-1.48-2.64a51.6,51.6,0,0,1-6.64-3.19,5.42,5.42,0,0,1-2.25-2.83,3.76,3.76,0,0,1,.59-3.22,3.58,3.58,0,0,1,3.23-.36q12.21,5.64,24.26,11.64a6.1,6.1,0,0,1,2.56,3.11,2.62,2.62,0,0,1-3.4,3.59,62.84,62.84,0,0,1-6-2.57C251.94,87.46,251.06,87,249.77,86.34Z"/><path class="cls-2" d="M291.19,79.3c-.41,1.67-.76,3.36-1.25,5-1.67,5.6-3.35,11.2-5.11,16.77-.52,1.64-.48,3.91-2.66,4.31s-3.57-1.14-5-2.51c-1.75-1.72-1.69-3.8-1.1-5.95,1.34-4.87,2.69-9.74,4-14.61.63-2.31,1.17-4.65,1.9-6.92,1-3.1,2.92-3.69,5.68-1.93A6.81,6.81,0,0,1,291.19,79.3Z"/><path class="cls-2" d="M96.19,59.22a2.48,2.48,0,0,1,1-3.48A16,16,0,0,1,101.35,54c9.85-2.69,20-3.92,30.06-5.08a41.07,41.07,0,0,1,4.77-.18,2.91,2.91,0,0,1,3.15,2.48,2.76,2.76,0,0,1-1.89,3.51,28.32,28.32,0,0,1-4.7.75C122.4,56.68,112,57.9,101.92,60.59a16.92,16.92,0,0,1-1.92.35,3.34,3.34,0,0,1-2.06-.36A5,5,0,0,1,96.19,59.22Z"/><path class="cls-2" d="M198,38.27c.74-3,1.8-4,3.85-3.77s3.11,1.59,3.27,4.22a2.15,2.15,0,0,0,1.13,1.42,20.27,20.27,0,0,0,2.68.75,10,10,0,0,1,2,.85,3.52,3.52,0,0,1,1.77,4.39c-.61,1.6-2,2.18-4.17,1.67q-4.36-1-8.71-2.16a58.9,58.9,0,0,1-6.52-1.83,5.88,5.88,0,0,1-2.78-2.31,3.11,3.11,0,0,1,0-2.89,4.51,4.51,0,0,1,3.09-1.19A21.6,21.6,0,0,1,198,38.27Z"/><path class="cls-2" d="M281.42,112.34c-.64,1.1-1,2.66-2,3.15-.78.41-2.37-.2-3.33-.8-2.94-1.83-3.69-4-2.44-6.71a2.77,2.77,0,0,1,1.84-1.45C277.84,106.32,281.11,109.73,281.42,112.34Z"/><path class="cls-1" d="M196.16,65.68a16.52,16.52,0,0,1,.05-4.4,22.61,22.61,0,0,1,.83-3.66,2.57,2.57,0,0,1,2.73-2.11c1.52.06,3,.25,3.48,2a16.25,16.25,0,0,1-1,12,3.45,3.45,0,0,1-2.77,1.61A3.93,3.93,0,0,1,196.82,69,13.18,13.18,0,0,1,196.16,65.68Z"/></svg>