<svg id="Layer_1" data-name="Layer 1" xmlns="http://www.w3.org/2000/svg" viewBox="0 0 2048 2048"><defs><style>.cls-1{fill:#171843;}.cls-2{fill:#fff;}.cls-3{opacity:0.3;}.cls-4{opacity:0.05;}.cls-11,.cls-5{fill:none;}.cls-11,.cls-5,.cls-8,.cls-9{stroke:#000;stroke-miterlimit:10;}.cls-5{stroke-width:5px;}.cls-6{fill:#e23434;}.cls-7{fill:#338ce5;}.cls-8{fill:#5a95b7;}.cls-8,.cls-9{stroke-width:25px;}.cls-9{fill:#fedf8d;}.cls-10{opacity:0.2;}.cls-11{stroke-width:15px;}</style></defs><title>Artboard 1</title><rect class="cls-1" x="166" y="166" width="1716" height="1716" rx="159.53" ry="159.53"/><circle class="cls-2" cx="1532.37" cy="476.26" r="133.51"/><circle cx="1491.61" cy="455.61" r="12.18"/><circle class="cls-3" cx="1481.71" cy="479.34" r="7.83"/><circle class="cls-4" cx="1449.24" cy="539.64" r="18.05"/><circle class="cls-4" cx="1554.26" cy="565.52" r="28.33"/><circle class="cls-4" cx="1540.67" cy="388.11" r="41.34"/><circle class="cls-4" cx="1503.78" cy="521.6" r="23.53"/><circle class="cls-4" cx="1628.19" cy="498.07" r="23.53"/><circle class="cls-3" cx="1582.01" cy="479.34" r="7.83"/><path class="cls-5" d="M1544.22,472.69a12.18,12.18,0,0,1-24.35,0"/><circle cx="1570.42" cy="455.61" r="12.18"/><circle class="cls-2" cx="473.76" cy="526.99" r="28.92"/><circle class="cls-2" cx="1793.9" cy="1049.78" r="28.92"/><circle class="cls-6" cx="723.4" cy="328.29" r="14.46"/><circle class="cls-6" cx="295.96" cy="773.68" r="14.46"/><circle class="cls-7" cx="602.79" cy="1634.12" r="14.46"/><circle class="cls-7" cx="371.08" cy="950.86" r="14.46"/><path class="cls-7" d="M415.85,1579.87a39.79,39.79,0,0,0-39.79,39.79,39.79,39.79,0,0,0-39.79-39.79v-1a39.79,39.79,0,0,0,39.79-39.79,39.79,39.79,0,0,0,39.79,39.79"/><path class="cls-6" d="M356.62,1289a30.33,30.33,0,0,0-30.33,30.33A30.33,30.33,0,0,0,296,1289v-.79a30.33,30.33,0,0,0,30.33-30.33,30.33,30.33,0,0,0,30.33,30.33"/><path class="cls-6" d="M475.17,665.8a37.71,37.71,0,0,0-37.71,37.71,37.71,37.71,0,0,0-37.71-37.71v-1a37.71,37.71,0,0,0,37.71-37.71,37.71,37.71,0,0,0,37.71,37.71"/><path class="cls-6" d="M1620.17,1539.45a30.33,30.33,0,0,0-30.33,30.33,30.33,30.33,0,0,0-30.33-30.33v-.79a30.33,30.33,0,0,0,30.33-30.33,30.33,30.33,0,0,0,30.33,30.33"/><path class="cls-6" d="M1650.5,830.15a30.33,30.33,0,0,0-30.33,30.33,30.33,30.33,0,0,0-30.33-30.33v-.79A30.33,30.33,0,0,0,1620.17,799a30.33,30.33,0,0,0,30.33,30.33"/><path class="cls-2" d="M1680.83,1182.9a30.33,30.33,0,0,0-30.33,30.33,30.33,30.33,0,0,0-30.33-30.33v-.79a30.33,30.33,0,0,0,30.33-30.33,30.33,30.33,0,0,0,30.33,30.33"/><circle class="cls-8" cx="999.84" cy="1094.77" r="573.08" transform="translate(-412.18 642.66) rotate(-29.84)"/><path class="cls-9" d="M863.49,539.27s-4.55,164.56-118.7,360.19a382.15,382.15,0,0,1-34.57,50.17c-42.72,52-42.68,118.94,160.71,187.38,124.66,41.95-18.27,267.54-82.35,358.58a35.44,35.44,0,0,1-57.62.5c-54.07-74.13-160.78-249.44-135.86-450.93a88.39,88.39,0,0,0-9-51.37c-38.32-74.42-90.86-172.37-63.7-214.44C622.68,624.11,770.53,562.77,863.49,539.27Z"/><path class="cls-9" d="M1265,662.38a58.33,58.33,0,0,1,2.26,5.59c21.95,65.71-105.53,5.34-46.22,145.8C1265.88,920,1386.24,737.37,1401.91,751c50.55,44,77.57,199.85,16.3,176.45-144.44-55.16-232.05-30-239.13,41.59-3.25,32.92-5.76,61.51-7.67,86.33-5.93,77.22,2.6,123,66.56,127.31,37.16,2.49,110.66-24.06,133.12,8,28.07,40.09-70.91,198.7-24.28,233.37,82.4,61.26,176.64-203.11,211.59-312.58,11.55-36.19,13.31-74.67,6.61-112.07-27.57-153.93-122.15-326.26-309.24-417.36C1252.3,580.4,1248.17,625.33,1265,662.38Z"/><path class="cls-9" d="M1366.89,1534.5l-4.12-3.79c-194.24,63.64-242,33.21-364.67,60-36.76,8-26.58,72.33-27.93,75.44C1087.36,1677,1254.31,1633.71,1366.89,1534.5Z"/><path class="cls-9" d="M1088.37,548.76c-8.49,37.37-34.43,117-104.09,138.25-47.54,10.84-50.47-52.15-49.77-77.49a43.58,43.58,0,0,1,3.8-16.53c5.07-11.38,12.94-36.59-1-62.84a3.76,3.76,0,0,1,2.93-5.52c20.65-2.19,70.13-5.45,132.57,2A18.21,18.21,0,0,1,1088.37,548.76Z"/><g class="cls-10"><path class="cls-2" d="M934.43,540.56S318.73,970.1,817.67,1621.07C839.82,1463.52,934.43,540.56,934.43,540.56Z"/><path class="cls-2" d="M934.43,540.56c311.86,30.6,537.76,307.38,505.8,600.6s-310.69,510.51-622.55,479.91"/></g><circle cx="909.34" cy="827.93" r="29.23"/><circle class="cls-3" cx="885.59" cy="884.9" r="18.8"/><circle class="cls-3" cx="1126.35" cy="884.9" r="18.8"/><path class="cls-11" d="M1035.63,868.92a29.23,29.23,0,0,1-58.46,0"/><circle cx="1098.53" cy="827.93" r="29.23"/></svg>