<svg id="레이어_1" data-name="레이어 1" xmlns="http://www.w3.org/2000/svg" viewBox="0 0 1000 1000"><defs><style>.cls-1{fill:#5a95b7;}.cls-1,.cls-2,.cls-6{stroke:#000;stroke-miterlimit:10;}.cls-1,.cls-2{stroke-width:25px;}.cls-2{fill:#fedf8d;}.cls-3{opacity:0.2;}.cls-4{fill:#fff;}.cls-5{opacity:0.3;}.cls-6{fill:none;stroke-width:15px;}</style></defs><title>ic_earth</title><circle class="cls-1" cx="498.78" cy="500" r="459.93" transform="translate(-182.66 314.48) rotate(-29.84)"/><path class="cls-2" d="M389.34,54.18s-3.65,132.07-95.26,289.07a306.69,306.69,0,0,1-27.75,40.26C232,425.23,232.08,479,395.31,533.89c100,33.66-14.66,214.71-66.09,287.78a28.44,28.44,0,0,1-46.24.4c-43.39-59.49-129-200.19-109-361.9A70.94,70.94,0,0,0,166.75,419C136,359.23,93.83,280.61,115.63,246.85,196.09,122.27,314.74,73,389.34,54.18Z"/><path class="cls-2" d="M711.57,153a46.81,46.81,0,0,1,1.81,4.49c17.62,52.73-84.69,4.29-37.1,117,36,85.27,132.6-61.31,145.18-50.35,40.57,35.33,62.26,160.39,13.08,141.61-115.92-44.27-186.23-24.1-191.91,33.38-2.61,26.42-4.62,49.36-6.15,69.29-4.76,62,2.09,98.73,53.42,102.17,29.82,2,88.81-19.31,106.83,6.44,22.53,32.18-56.91,159.47-19.49,187.29C843.37,813.46,919,601.29,947,513.44c9.27-29,10.68-59.93,5.31-89.94-22.12-123.54-98-261.84-248.18-335C701.39,87.19,698.08,123.25,711.57,153Z"/><path class="cls-2" d="M793.35,852.9l-3.31-3C634.16,900.93,595.82,876.51,497.38,898,467.87,904.41,476,956,475,958.52,569,967.26,703,932.52,793.35,852.9Z"/><path class="cls-2" d="M569.82,61.79c-6.81,30-27.63,93.87-83.54,111-38.15,8.7-40.5-41.85-39.94-62.19a35,35,0,0,1,3.05-13.26c4.07-9.13,10.38-29.36-.84-50.43a3,3,0,0,1,2.35-4.43c16.57-1.75,56.28-4.37,106.39,1.62A14.61,14.61,0,0,1,569.82,61.79Z"/><g class="cls-3"><path class="cls-4" d="M446.28,55.21s-494.13,344.73-93.7,867.16C370.35,795.94,446.28,55.21,446.28,55.21Z"/><path class="cls-4" d="M446.28,55.21c250.28,24.56,431.58,246.69,405.93,482S602.86,946.94,352.58,922.38"/></g><circle cx="426.14" cy="285.84" r="23.46"/><circle class="cls-5" cx="407.08" cy="331.56" r="15.09"/><circle class="cls-5" cx="600.3" cy="331.56" r="15.09"/><path class="cls-6" d="M527.5,318.74a23.46,23.46,0,0,1-46.91,0"/><circle cx="577.98" cy="285.84" r="23.46"/></svg>