<svg id="Layer_1" data-name="Layer 1" xmlns="http://www.w3.org/2000/svg" viewBox="0 0 2048 2048"><defs><style>.cls-1{fill:#171843;}.cls-2{fill:#fff;}.cls-3{opacity:0.3;}.cls-4{opacity:0.05;}.cls-11,.cls-5{fill:none;}.cls-11,.cls-5,.cls-8,.cls-9{stroke:#000;stroke-miterlimit:10;}.cls-5{stroke-width:5px;}.cls-6{fill:#e23434;}.cls-7{fill:#338ce5;}.cls-8{fill:#5a95b7;}.cls-8,.cls-9{stroke-width:25px;}.cls-9{fill:#fedf8d;}.cls-10{opacity:0.2;}.cls-11{stroke-width:15px;}</style></defs><title>ic_launcher_round</title><circle class="cls-1" cx="1024" cy="1024" r="1020.93"/><circle class="cls-2" cx="1534.01" cy="654.73" r="159.34"/><circle cx="1485.36" cy="630.08" r="14.53"/><circle class="cls-3" cx="1473.55" cy="658.4" r="9.35"/><circle class="cls-4" cx="1434.79" cy="730.37" r="21.54"/><circle class="cls-4" cx="1560.14" cy="761.26" r="33.81"/><circle class="cls-4" cx="1543.91" cy="549.53" r="49.33"/><circle class="cls-4" cx="1499.89" cy="708.83" r="28.08"/><circle class="cls-4" cx="1648.36" cy="680.75" r="28.08"/><circle class="cls-3" cx="1593.25" cy="658.4" r="9.35"/><path class="cls-5" d="M1548.15,650.46a14.53,14.53,0,1,1-29.06,0"/><circle cx="1579.42" cy="630.08" r="14.53"/><circle class="cls-2" cx="1110.29" cy="385.52" r="34.51"/><circle class="cls-2" cx="1888.17" cy="1183.53" r="34.51"/><circle class="cls-6" cx="813.88" cy="198.94" r="17.26"/><circle class="cls-6" cx="212.57" cy="637.82" r="17.26"/><circle class="cls-6" cx="1686.53" cy="1579.56" r="17.26"/><circle class="cls-7" cx="1058.51" cy="1867.44" r="17.26"/><circle class="cls-7" cx="266.03" cy="886.81" r="17.26"/><circle class="cls-2" cx="654.2" cy="1751.6" r="17.26"/><path class="cls-7" d="M391.24,1543.5A47.49,47.49,0,0,0,343.75,1591a47.49,47.49,0,0,0-47.49-47.49v-1.23a47.49,47.49,0,0,0,47.49-47.49,47.49,47.49,0,0,0,47.49,47.49"/><path class="cls-7" d="M1405.67,199.4a35.44,35.44,0,0,0-35.44,35.44,35.44,35.44,0,0,0-35.44-35.44v-.92A35.44,35.44,0,0,0,1370.23,163a35.44,35.44,0,0,0,35.44,35.44"/><path class="cls-6" d="M212.57,1255.18a36.2,36.2,0,0,0-36.2,36.2,36.2,36.2,0,0,0-36.2-36.2v-.94a36.2,36.2,0,0,0,36.2-36.2,36.2,36.2,0,0,0,36.2,36.2"/><path class="cls-6" d="M611,420.61a45,45,0,0,0-45,45,45,45,0,0,0-45-45v-1.17a45,45,0,0,0,45-45,45,45,0,0,0,45,45"/><path class="cls-6" d="M1367.84,1591.46a36.2,36.2,0,0,0-36.2,36.2,36.2,36.2,0,0,0-36.2-36.2v-.94a36.2,36.2,0,0,0,36.2-36.2,36.2,36.2,0,0,0,36.2,36.2"/><path class="cls-6" d="M1758.93,992a36.2,36.2,0,0,0-36.2,36.2,36.2,36.2,0,0,0-36.2-36.2v-.94a36.2,36.2,0,0,0,36.2-36.2,36.2,36.2,0,0,0,36.2,36.2"/><path class="cls-2" d="M1572.6,1328.51a36.2,36.2,0,0,0-36.2,36.2,36.2,36.2,0,0,0-36.2-36.2v-.94a36.2,36.2,0,0,0,36.2-36.2,36.2,36.2,0,0,0,36.2,36.2"/><circle class="cls-8" cx="872.98" cy="1113.94" r="514.72" transform="translate(-438.54 582.08) rotate(-29.84)"/><path class="cls-9" d="M750.51,615s-4.08,147.8-106.61,323.51a343.23,343.23,0,0,1-31.05,45.06c-38.37,46.69-38.33,106.83,144.34,168.29,112,37.67-16.41,240.29-74,322.06a31.83,31.83,0,0,1-51.75.45c-48.56-66.58-144.41-224-122-405a79.39,79.39,0,0,0-8-46.14C467,956.4,419.8,868.42,444.2,830.64,534.23,691.21,667,636.12,750.51,615Z"/><path class="cls-9" d="M1111.12,725.58a52.39,52.39,0,0,1,2,5c19.71,59-94.78,4.8-41.52,130.95C1111.92,957,1220,792.94,1234.1,805.2c45.4,39.54,69.67,179.5,14.64,158.48C1119,914.13,1040.32,936.71,1034,1001c-2.92,29.57-5.17,55.25-6.89,77.54-5.33,69.35,2.34,110.5,59.78,114.34,33.37,2.24,99.39-21.61,119.56,7.2,25.21,36-63.69,178.46-21.81,209.6,74,55,158.65-182.42,190-280.74,10.38-32.51,12-67.07,5.94-100.65-24.76-138.25-109.71-293-277.74-374.85C1099.73,652,1096,692.31,1111.12,725.58Z"/><path class="cls-9" d="M1202.65,1508.88l-3.7-3.4c-174.46,57.16-217.36,29.83-327.53,53.85-33,7.2-23.87,65-25.09,67.75C951.58,1636.87,1101.53,1598,1202.65,1508.88Z"/><path class="cls-9" d="M952.49,623.53c-7.62,33.56-30.92,105-93.49,124.17-42.7,9.74-45.33-46.84-44.7-69.6a39.14,39.14,0,0,1,3.41-14.84c4.55-10.22,11.62-32.86-.94-56.44a3.38,3.38,0,0,1,2.63-5c18.55-2,63-4.89,119.06,1.81A16.35,16.35,0,0,1,952.49,623.53Z"/><g class="cls-10"><path class="cls-2" d="M814.23,616.17s-553,385.8-104.86,970.46C729.25,1445.14,814.23,616.17,814.23,616.17Z"/><path class="cls-2" d="M814.23,616.17c280.1,27.49,483,276.08,454.28,539.43s-279,458.52-559.15,431"/></g><circle cx="791.69" cy="874.27" r="26.25"/><circle class="cls-3" cx="770.36" cy="925.44" r="16.89"/><circle class="cls-3" cx="986.6" cy="925.44" r="16.89"/><path class="cls-11" d="M905.12,911.09a26.25,26.25,0,0,1-52.5,0"/><circle cx="961.62" cy="874.27" r="26.25"/></svg>