<svg id="Layer_1" data-name="Layer 1" xmlns="http://www.w3.org/2000/svg" viewBox="0 0 2048 2048"><defs><style>.cls-1{fill:#171843;}.cls-2{fill:#fff;}.cls-3{opacity:0.3;}.cls-4{opacity:0.05;}.cls-11,.cls-5{fill:none;}.cls-11,.cls-5,.cls-8,.cls-9{stroke:#000;stroke-miterlimit:10;}.cls-5{stroke-width:5px;}.cls-6{fill:#e23434;}.cls-7{fill:#338ce5;}.cls-8{fill:#5a95b7;}.cls-8,.cls-9{stroke-width:25px;}.cls-9{fill:#fedf8d;}.cls-10{opacity:0.2;}.cls-11{stroke-width:15px;}</style></defs><title>Artboard 1</title><rect class="cls-1" width="2048" height="2048" rx="190.4" ry="190.4"/><circle class="cls-2" cx="1630.73" cy="370.29" r="159.34"/><circle cx="1582.08" cy="345.64" r="14.53"/><circle class="cls-3" cx="1570.27" cy="373.96" r="9.35"/><circle class="cls-4" cx="1531.51" cy="445.93" r="21.54"/><circle class="cls-4" cx="1656.86" cy="476.82" r="33.81"/><circle class="cls-4" cx="1640.63" cy="265.09" r="49.33"/><circle class="cls-4" cx="1596.61" cy="424.4" r="28.08"/><circle class="cls-4" cx="1745.08" cy="396.31" r="28.08"/><circle class="cls-3" cx="1689.97" cy="373.96" r="9.35"/><path class="cls-5" d="M1644.87,366a14.53,14.53,0,1,1-29.06,0"/><circle cx="1676.14" cy="345.64" r="14.53"/><circle class="cls-2" cx="367.3" cy="430.83" r="34.51"/><circle class="cls-2" cx="1942.85" cy="1054.77" r="34.51"/><circle class="cls-6" cx="665.24" cy="193.69" r="17.26"/><circle class="cls-6" cx="155.11" cy="725.25" r="17.26"/><circle class="cls-7" cx="521.3" cy="1752.17" r="17.26"/><circle class="cls-7" cx="244.76" cy="936.71" r="17.26"/><path class="cls-7" d="M298.19,1687.42a47.49,47.49,0,0,0-47.49,47.49,47.49,47.49,0,0,0-47.49-47.49v-1.23a47.49,47.49,0,0,0,47.49-47.49,47.49,47.49,0,0,0,47.49,47.49"/><path class="cls-6" d="M227.5,1340.22a36.2,36.2,0,0,0-36.2,36.2,36.2,36.2,0,0,0-36.2-36.2v-.94a36.2,36.2,0,0,0,36.2-36.2,36.2,36.2,0,0,0,36.2,36.2"/><path class="cls-6" d="M369,596.5a45,45,0,0,0-45,45,45,45,0,0,0-45-45v-1.17a45,45,0,0,0,45-45,45,45,0,0,0,45,45"/><path class="cls-6" d="M1735.51,1639.17a36.2,36.2,0,0,0-36.2,36.2,36.2,36.2,0,0,0-36.2-36.2v-.94a36.2,36.2,0,0,0,36.2-36.2,36.2,36.2,0,0,0,36.2,36.2"/><path class="cls-6" d="M1771.71,792.64a36.2,36.2,0,0,0-36.2,36.2,36.2,36.2,0,0,0-36.2-36.2v-.94a36.2,36.2,0,0,0,36.2-36.2,36.2,36.2,0,0,0,36.2,36.2"/><path class="cls-2" d="M1807.91,1213.64a36.2,36.2,0,0,0-36.2,36.2,36.2,36.2,0,0,0-36.2-36.2v-.94a36.2,36.2,0,0,0,36.2-36.2,36.2,36.2,0,0,0,36.2,36.2"/><circle class="cls-8" cx="995.17" cy="1108.47" r="683.96" transform="translate(-419.61 642.15) rotate(-29.84)"/><path class="cls-9" d="M832.43,445.49S827,641.88,690.77,875.36a456.08,456.08,0,0,1-41.26,59.88c-51,62-50.93,142,191.8,223.63,148.78,50.06-21.8,319.3-98.28,428a42.3,42.3,0,0,1-68.77.6c-64.53-88.47-191.89-297.7-162.14-538.17a105.49,105.49,0,0,0-10.69-61.31C455.69,899.13,393,782.22,425.4,732,545,546.75,721.49,473.53,832.43,445.49Z"/><path class="cls-9" d="M1311.61,592.41a69.62,69.62,0,0,1,2.7,6.67c26.2,78.42-125.94,6.37-55.17,174,53.54,126.81,197.18-91.17,215.89-74.88,60.33,52.54,92.58,238.52,19.45,210.59C1322.09,843,1217.54,873,1209.09,958.43c-3.88,39.29-6.88,73.41-9.15,103-7.08,92.16,3.11,146.83,79.44,151.94,44.35,3,132.07-28.71,158.87,9.57,33.51,47.85-84.63,237.14-29,278.52,98.34,73.12,210.82-242.41,252.52-373.05,13.79-43.19,15.89-89.12,7.89-133.75C1636.79,811,1523.9,605.31,1300.62,496.59,1296.47,494.58,1291.55,548.2,1311.61,592.41Z"/><path class="cls-9" d="M1433.23,1633.27l-4.92-4.52c-231.82,76-288.82,39.63-435.22,71.55-43.88,9.57-31.73,86.32-33.33,90C1099.61,1803.33,1298.87,1751.67,1433.23,1633.27Z"/><path class="cls-9" d="M1100.82,456.81c-10.13,44.6-41.09,139.59-124.23,165-56.74,12.94-60.23-62.24-59.4-92.48a52,52,0,0,1,4.54-19.72c6-13.58,15.44-43.66-1.25-75A4.49,4.49,0,0,1,924,428c24.65-2.61,83.69-6.5,158.21,2.41A21.73,21.73,0,0,1,1100.82,456.81Z"/><g class="cls-10"><path class="cls-2" d="M917.1,447S182.28,959.68,777.76,1736.59C804.18,1548.56,917.1,447,917.1,447Z"/><path class="cls-2" d="M917.1,447c372.2,36.52,641.8,366.85,603.65,716.8s-370.8,609.28-743,572.76"/></g><circle cx="887.15" cy="789.99" r="34.88"/><circle class="cls-3" cx="858.81" cy="857.98" r="22.44"/><circle class="cls-3" cx="1146.15" cy="857.98" r="22.44"/><path class="cls-11" d="M1037.88,838.91a34.88,34.88,0,0,1-69.77,0"/><circle cx="1112.95" cy="789.99" r="34.88"/></svg>